# File produced by Open Asset Import Library (http://www.assimp.sf.net)
# (assimp v5.0.1937526254)

# 8 vertex positions
v  -0.100000001 -0.100000001 0.100000001
v  0.100000001 -0.100000001 0.100000001
v  0.100000001 0.100000001 0.100000001
v  -0.100000001 0.100000001 0.100000001
v  -0.100000001 -0.100000001 -0.100000001
v  -0.100000001 0.100000001 -0.100000001
v  0.100000001 0.100000001 -0.100000001
v  0.100000001 -0.100000001 -0.100000001

# 4 UV coordinates
vt 0 0 1
vt 1 0 1
vt 1 1 1
vt 0 1 1

# 6 vertex normals
vn 0 0 0.200000003
vn 0 0 -0.200000003
vn 0 0.200000003 0
vn 0 -0.200000003 0
vn -0.200000003 0 0
vn 0.200000003 0 0

# Mesh 'Cube' with 6 faces
g Cube
f  1/1/1 2/2/1 3/3/1 4/4/1
f  5/2/2 6/3/2 7/4/2 8/1/2
f  6/4/3 4/1/3 3/2/3 7/3/3
f  5/1/4 8/2/4 2/3/4 1/4/4
f  5/1/5 1/2/5 4/3/5 6/4/5
f  8/2/6 7/3/6 3/4/6 2/1/6

